<svg xmlns="http://www.w3.org/2000/svg" width="197" height="56" viewBox="0 0 197 56"><title>D5AC9F47-D032-4D48-9169-836669BE0718</title><path fill="#fff" fill-rule="evenodd" d="M.211 50.605c-.092.05-.211-.008-.211-.102V5.452c0-.096.122-.154.213-.101l9.43 7.164a.12.12 0 0 1 .063.102v31.04c0 .042-.024.08-.065.102zm22.639 5.317c-.054.125-.267.091-.267-.043V4.602c0-.13.203-.168.264-.05l3.56 7.005a.1.1 0 0 1 .011.049v35.97a.1.1 0 0 1-.009.043zm11.286-4.49-4.49-7.035a.1.1 0 0 1-.018-.06V8.55q0-.027.013-.051L34.131.07c.063-.117.263-.078.263.051v51.253c0 .124-.189.167-.258.059M12.884 52.99c-.085.082-.24.03-.24-.081V3.213c0-.11.155-.163.24-.081l6.742 7.635q.035.034.036.081v34.425q0 .047-.036.081zm31.887-2.55-7.26-6.777a.12.12 0 0 1-.047-.09V12.637q.001-.055.047-.091l7.26-6.74c.09-.068.229-.012.229.092v44.45c0 .104-.14.159-.229.09M58.258 19h4.126a.26.26 0 0 1 .23.132l5.325 9.783c.095.175.365.175.46-.002l5.275-9.78a.26.26 0 0 1 .23-.133h4.1c.142 0 .258.108.258.24v16.351c0 .134-.116.24-.258.24h-3.149c-.143 0-.258-.106-.258-.24V25.486c0-.254-.369-.334-.49-.107l-4.575 8.612a.26.26 0 0 1-.232.134h-2.312a.26.26 0 0 1-.231-.134l-4.602-8.617c-.122-.227-.49-.146-.49.108V35.59c0 .134-.115.24-.258.24h-3.149c-.143 0-.258-.106-.258-.24V19.24c0-.133.115-.241.258-.241m33.164 9.306c.151 0 .272-.122.257-.262q-.12-1.094-.858-1.782-.826-.77-2.194-.77-1.29 0-2.155.757-.765.671-1.035 1.765c-.037.149.088.292.252.292zm2.277-3.728q1.743 1.804 1.742 5.026 0 .39-.012.66c-.005.13-.12.23-.257.23h-9.375c-.178 0-.3.163-.243.32a3.3 3.3 0 0 0 1.189 1.591q.954.685 2.297.685.98 0 1.884-.348a5 5 0 0 0 1.447-.863.27.27 0 0 1 .357.009l1.74 1.64a.23.23 0 0 1 .002.336 7.1 7.1 0 0 1-2.397 1.523q-1.51.59-3.368.589-2.194 0-3.834-.817-1.638-.818-2.53-2.308-.89-1.491-.89-3.44 0-1.971.904-3.474.903-1.502 2.53-2.332 1.625-.83 3.716-.83 3.356 0 5.098 1.803m10.435-1.177q1.057-.57 2.437-.64c.148-.008.273.102.273.24v2.978c0 .136-.121.246-.267.24a9 9 0 0 0-.352-.005q-1.833 0-2.904.926-1.071.925-1.071 2.464v5.987c0 .133-.116.24-.258.24h-3.46c-.142 0-.257-.107-.257-.24V23.136c0-.133.115-.24.258-.24h3.459c.142 0 .258.107.258.24v1.289c0 .23.312.328.463.145q.6-.728 1.42-1.17m11.532 2.524q-1.497 0-2.44.95t-.942 2.513.93 2.536q.928.974 2.374.974 2.028 0 3.085-1.325a.27.27 0 0 1 .352-.056l2.32 1.467a.23.23 0 0 1 .07.332q-.86 1.225-2.33 1.915-1.586.745-3.703.745-2.09 0-3.691-.817-1.601-.819-2.491-2.309t-.89-3.438q0-1.971.89-3.475t2.504-2.332q1.612-.83 3.73-.83 1.987 0 3.535.71 1.427.653 2.33 1.808a.23.23 0 0 1-.058.338l-2.285 1.535a.27.27 0 0 1-.343-.035q-1.156-1.206-2.947-1.206m15.914 6.877q.889-.545 1.078-1.368a.2.2 0 0 0 .006-.054v-.886c0-.133-.116-.24-.258-.24h-2.865q-1.162 0-1.717.348-.555.349-.554 1.118 0 .746.58 1.19.58.445 1.588.445 1.239 0 2.142-.553m1.11 2.79v-.66c0-.208-.268-.321-.432-.18a4.7 4.7 0 0 1-1.375.815q-1.11.433-2.555.433-2.194 0-3.485-1.118t-1.29-2.922q0-1.826 1.38-2.849 1.38-1.022 3.91-1.046h3.563c.142 0 .258-.107.258-.24q0-1.034-.736-1.6-.736-.564-2.155-.564-1.83 0-3.89 1.01a.265.265 0 0 1-.354-.115l-1.022-2.102a.234.234 0 0 1 .122-.315 17 17 0 0 1 2.873-1.027q1.444-.36 3.175-.36 2.787 0 4.323 1.226 1.535 1.225 1.562 3.414l.025 8.199c0 .133-.116.24-.258.24h-3.38c-.144 0-.259-.107-.259-.24m19.81-11.494q1.38 1.346 1.381 3.606v7.888c0 .132-.115.24-.258.24h-3.459c-.142 0-.258-.108-.258-.24v-6.806q0-1.226-.735-1.935-.737-.71-2-.71-1.473.025-2.324.95-.852.927-.852 2.369v6.132c0 .132-.116.24-.258.24h-3.459c-.142 0-.258-.108-.258-.24V23.136c0-.133.116-.241.258-.241h3.46c.141 0 .257.108.257.24v1.237c0 .228.309.326.461.147q1.472-1.725 4.34-1.768 2.324 0 3.704 1.347m13.808 10.832a.23.23 0 0 1-.12.274 7 7 0 0 1-1.542.568 8 8 0 0 1-1.897.228q-1.935 0-3.149-1.034t-1.213-2.958v-5.746c0-.133-.116-.241-.258-.241h-1.42c-.143 0-.258-.107-.258-.24v-2.068c0-.133.115-.24.258-.24h1.42c.142 0 .258-.108.258-.241v-3.077c0-.133.115-.241.258-.241h3.433c.142 0 .258.108.258.24v3.078c0 .133.115.241.258.241h3.252c.143 0 .259.107.259.24v2.092c0 .132-.116.24-.259.24h-3.252c-.143 0-.258.108-.258.241v5.097q0 1.491 1.265 1.49.764 0 1.664-.363c.145-.059.311.013.354.153zm11.62-6.624c.151 0 .272-.122.257-.262q-.12-1.094-.858-1.782-.826-.77-2.194-.77-1.29 0-2.155.757-.765.671-1.035 1.765c-.037.149.088.292.252.292zm2.277-3.728q1.742 1.804 1.742 5.026 0 .39-.012.66c-.005.13-.12.23-.257.23h-9.375c-.178 0-.3.163-.243.32a3.3 3.3 0 0 0 1.189 1.591q.954.685 2.297.685.98 0 1.884-.348a5 5 0 0 0 1.447-.863.27.27 0 0 1 .357.009l1.74 1.64a.23.23 0 0 1 .002.336 7.1 7.1 0 0 1-2.397 1.523q-1.51.59-3.368.589-2.195 0-3.834-.817-1.638-.818-2.53-2.308-.89-1.491-.89-3.44 0-1.971.904-3.474.903-1.502 2.53-2.332 1.625-.83 3.716-.83 3.356 0 5.098 1.803m11.003 1.347q-1.497 0-2.44.95t-.942 2.513.93 2.536q.928.974 2.374.974 2.028 0 3.085-1.325a.27.27 0 0 1 .352-.056l2.32 1.467a.23.23 0 0 1 .07.332q-.86 1.225-2.33 1.915-1.586.745-3.703.745-2.09 0-3.691-.817-1.601-.819-2.491-2.309t-.89-3.438q0-1.971.89-3.475t2.504-2.332q1.612-.83 3.73-.83 1.986 0 3.535.71 1.427.653 2.33 1.808a.23.23 0 0 1-.058.338l-2.285 1.535a.27.27 0 0 1-.343-.035q-1.156-1.206-2.947-1.206"/></svg>