<svg xmlns="http://www.w3.org/2000/svg" viewBox="0 0 64 64" role="img" aria-label="MQTT">
  <rect width="64" height="64" rx="14" fill="#0b1220"/>
  <path fill="#00e6b8" d="M28.4 52H8.2A2.2 2.2 0 0 1 6 49.8v-16.7h.1c10.5 0 19.1 8.4 19.3 18.9Zm13.8 0H35c-.2-14-11.7-25.4-25.9-25.5V18.4h.1c18.1 0 32.9 14.6 33 32.6Zm8.2 0h-1.8C47.5 30.4 29.8 12.8 8 12.7V10.6c0-1.1 1-2 2.2-2h13.9C35.5 13.1 45.5 22.7 50.5 34.9v15c0 1.2-1 2.1-2.1 2.1ZM41.3 8.6h11.1c1.2 0 2.1 1 2.1 2.2v10.7c-1.7-2.3-3.7-4.8-5.7-6.8-2.1-2.1-4.8-4.1-7.5-6.1Z"/>
</svg>
