<?xml version="1.0" encoding="UTF-8"?>
<svg id="Layer_1" data-name="Layer 1" xmlns="http://www.w3.org/2000/svg" viewBox="0 0 520.53 103.45">
  <defs>
    <style>
      .cls-1 {
        fill: #188a9c;
      }

      .cls-2 {
        fill: none;
        stroke: #1d1d1b;
        stroke-miterlimit: 10;
        stroke-width: 4.71px;
      }

      .cls-3 {
        fill: #59c1d3;
      }

      .cls-4 {
        fill: #1d1d1b;
      }
    </style>
  </defs>
  <g>
    <path class="cls-3" d="m108.02,37.4h4.8l5.17,13.92,5.17-13.92h4.69l-7.99,19.9h-3.84l-7.99-19.9Z"/>
    <path class="cls-3" d="m131.09,37.4h4.35v19.76h-4.35v-19.76Z"/>
    <path class="cls-3" d="m140.39,37.4h7.71c6.21,0,10.5,4.26,10.5,9.82v.06c0,5.56-4.29,9.88-10.5,9.88h-7.71v-19.76Zm4.35,3.92v11.91h3.36c3.56,0,5.96-2.4,5.96-5.9v-.06c0-3.5-2.4-5.96-5.96-5.96h-3.36Z"/>
    <path class="cls-3" d="m162.47,37.4h14.91v3.87h-10.59v4.01h9.32v3.87h-9.32v4.15h10.73v3.87h-15.05v-19.76Z"/>
    <path class="cls-3" d="m181.4,37.4h4.01l9.26,12.17v-12.17h4.29v19.76h-3.7l-9.57-12.56v12.56h-4.29v-19.76Z"/>
    <path class="cls-3" d="m202.36,54.28l2.57-3.08c1.78,1.47,3.64,2.4,5.9,2.4,1.78,0,2.85-.71,2.85-1.86v-.06c0-1.1-.68-1.67-3.98-2.51-3.98-1.02-6.55-2.12-6.55-6.04v-.06c0-3.58,2.88-5.96,6.92-5.96,2.88,0,5.34.9,7.34,2.51l-2.26,3.27c-1.75-1.21-3.47-1.95-5.14-1.95s-2.54.76-2.54,1.72v.06c0,1.3.85,1.72,4.26,2.6,4.01,1.04,6.27,2.48,6.27,5.93v.06c0,3.92-2.99,6.13-7.25,6.13-2.99,0-6.01-1.04-8.39-3.16Z"/>
    <path class="cls-3" d="m220.91,47.34v-.06c0-5.62,4.23-10.22,10.3-10.22,3.73,0,5.96,1.24,7.79,3.05l-2.77,3.19c-1.52-1.38-3.08-2.23-5.05-2.23-3.33,0-5.73,2.77-5.73,6.15v.06c0,3.39,2.34,6.21,5.73,6.21,2.26,0,3.64-.9,5.19-2.31l2.77,2.79c-2.03,2.17-4.29,3.53-8.1,3.53-5.82,0-10.13-4.49-10.13-10.16Z"/>
    <path class="cls-3" d="m242.63,37.4h14.91v3.87h-10.59v4.01h9.32v3.87h-9.32v4.15h10.73v3.87h-15.05v-19.76Z"/>
    <path class="cls-3" d="m261.56,37.4h4.01l9.26,12.17v-12.17h4.29v19.76h-3.7l-9.57-12.56v12.56h-4.29v-19.76Z"/>
    <path class="cls-3" d="m288.47,41.41h-6.01v-4.01h16.37v4.01h-6.01v15.75h-4.35v-15.75Z"/>
    <path class="cls-3" d="m302.17,37.4h14.91v3.87h-10.59v4.01h9.32v3.87h-9.32v4.15h10.73v3.87h-15.05v-19.76Z"/>
    <path class="cls-3" d="m321.1,37.4h9.03c2.51,0,4.46.71,5.76,2,1.1,1.1,1.69,2.65,1.69,4.52v.06c0,3.19-1.72,5.19-4.24,6.13l4.83,7.06h-5.08l-4.23-6.32h-3.42v6.32h-4.35v-19.76Zm8.75,9.6c2.12,0,3.33-1.13,3.33-2.8v-.06c0-1.86-1.3-2.82-3.42-2.82h-4.32v5.68h4.4Z"/>
    <path class="cls-3" d="m349.99,37.4h15.05v3.95h-10.7v4.21h9.43v3.95h-9.43v7.65h-4.35v-19.76Z"/>
    <path class="cls-3" d="m367.65,47.34v-.06c0-5.62,4.43-10.22,10.53-10.22s10.47,4.54,10.47,10.16v.06c0,5.62-4.43,10.22-10.53,10.22s-10.47-4.55-10.47-10.16Zm16.46,0v-.06c0-3.39-2.48-6.21-5.99-6.21s-5.93,2.77-5.93,6.15v.06c0,3.39,2.48,6.21,5.99,6.21s5.93-2.77,5.93-6.15Z"/>
    <path class="cls-3" d="m392.53,37.4h9.03c2.51,0,4.46.71,5.76,2,1.1,1.1,1.69,2.65,1.69,4.52v.06c0,3.19-1.72,5.19-4.24,6.13l4.83,7.06h-5.08l-4.23-6.32h-3.42v6.32h-4.35v-19.76Zm8.75,9.6c2.12,0,3.33-1.13,3.33-2.8v-.06c0-1.86-1.3-2.82-3.42-2.82h-4.32v5.68h4.4Z"/>
    <path class="cls-4" d="m8.47,74.82h4.01l8.47,19.9h-4.55l-1.81-4.43H6.24l-1.81,4.43H0l8.47-19.9Zm4.57,11.63l-2.63-6.41-2.63,6.41h5.25Z"/>
    <path class="cls-4" d="m22.99,86.25v-11.29h4.35v11.18c0,3.22,1.61,4.88,4.26,4.88s4.26-1.61,4.26-4.74v-11.32h4.35v11.15c0,5.99-3.36,8.92-8.67,8.92s-8.55-2.96-8.55-8.78Z"/>
    <path class="cls-4" d="m49.26,78.97h-6.01v-4.01h16.37v4.01h-6.01v15.75h-4.35v-15.75Z"/>
    <path class="cls-4" d="m61.24,84.9v-.06c0-5.62,4.43-10.22,10.53-10.22s10.47,4.54,10.47,10.16v.06c0,5.62-4.43,10.22-10.53,10.22s-10.47-4.55-10.47-10.16Zm16.46,0v-.06c0-3.39-2.48-6.21-5.99-6.21s-5.93,2.77-5.93,6.15v.06c0,3.39,2.48,6.21,5.99,6.21s5.93-2.77,5.93-6.16Z"/>
    <path class="cls-4" d="m86.12,74.96h4.69l5.19,8.36,5.19-8.36h4.69v19.76h-4.32v-12.9l-5.56,8.44h-.11l-5.51-8.36v12.82h-4.26v-19.76Z"/>
    <path class="cls-4" d="m117.41,74.82h4.01l8.47,19.9h-4.55l-1.81-4.43h-8.36l-1.81,4.43h-4.43l8.47-19.9Zm4.57,11.63l-2.63-6.41-2.63,6.41h5.25Z"/>
    <path class="cls-4" d="m135.01,78.97h-6.01v-4.01h16.37v4.01h-6.01v15.75h-4.35v-15.75Z"/>
    <path class="cls-4" d="m148.91,74.96h4.35v19.76h-4.35v-19.76Z"/>
    <path class="cls-4" d="m157.33,84.9v-.06c0-5.62,4.43-10.22,10.53-10.22s10.47,4.54,10.47,10.16v.06c0,5.62-4.43,10.22-10.53,10.22s-10.47-4.55-10.47-10.16Zm16.46,0v-.06c0-3.39-2.48-6.21-5.98-6.21s-5.93,2.77-5.93,6.15v.06c0,3.39,2.48,6.21,5.99,6.21s5.93-2.77,5.93-6.16Z"/>
    <path class="cls-4" d="m182.21,74.96h4.01l9.26,12.17v-12.17h4.29v19.76h-3.7l-9.57-12.56v12.56h-4.29v-19.76Z"/>
    <path class="cls-4" d="m224.01,92.8c-1.61,1.33-3.5,2.2-5.79,2.2-3.78,0-6.63-2.2-6.63-5.7v-.06c0-2.51,1.36-4.29,3.84-5.42-.96-1.36-1.38-2.6-1.38-3.95v-.06c0-2.71,2.17-5.19,5.98-5.19,3.36,0,5.56,2.2,5.56,4.97v.06c0,2.65-1.69,4.21-4.15,5.17l2.63,2.63c.65-1.02,1.3-2.17,1.92-3.39l3.19,1.75c-.76,1.38-1.61,2.85-2.6,4.18l2.91,2.91-3.19,2.23-2.29-2.31Zm-2.43-2.48l-3.78-3.84c-1.3.68-1.84,1.64-1.84,2.6v.06c0,1.38,1.16,2.31,2.77,2.31.99,0,1.95-.43,2.85-1.13Zm.23-10.42v-.06c0-1.13-.76-1.84-1.86-1.84-1.16,0-1.92.82-1.92,2v.06c0,.88.34,1.52,1.16,2.46,1.72-.65,2.63-1.38,2.63-2.63Z"/>
    <path class="cls-4" d="m241.39,79.07h-6.01v-4.01h16.37v4.01h-6.01v15.75h-4.35v-15.75Z"/>
    <path class="cls-4" d="m255.09,75.06h14.9v3.87h-10.59v4.01h9.32v3.87h-9.32v4.15h10.73v3.87h-15.05v-19.76Z"/>
    <path class="cls-4" d="m274.01,75.06h4.35v8.64l8.02-8.64h5.25l-8.05,8.39,8.41,11.38h-5.22l-6.13-8.41-2.29,2.37v6.04h-4.35v-19.76Z"/>
    <path class="cls-4" d="m294.63,75.06h4.01l9.26,12.17v-12.17h4.29v19.76h-3.7l-9.57-12.56v12.56h-4.29v-19.76Z"/>
    <path class="cls-4" d="m316.07,85v-.06c0-5.62,4.43-10.22,10.53-10.22s10.47,4.54,10.47,10.16v.06c0,5.62-4.43,10.22-10.53,10.22s-10.47-4.55-10.47-10.16Zm16.46,0v-.06c0-3.39-2.48-6.21-5.99-6.21s-5.93,2.77-5.93,6.15v.06c0,3.39,2.48,6.21,5.99,6.21s5.93-2.77,5.93-6.16Z"/>
    <path class="cls-4" d="m340.95,75.06h4.35v15.81h9.85v3.95h-14.2v-19.76Z"/>
    <path class="cls-4" d="m356.43,85v-.06c0-5.62,4.43-10.22,10.53-10.22s10.47,4.54,10.47,10.16v.06c0,5.62-4.43,10.22-10.53,10.22s-10.47-4.55-10.47-10.16Zm16.46,0v-.06c0-3.39-2.48-6.21-5.99-6.21s-5.93,2.77-5.93,6.15v.06c0,3.39,2.48,6.21,5.99,6.21s5.93-2.77,5.93-6.16Z"/>
    <path class="cls-4" d="m380.44,85v-.06c0-5.62,4.38-10.22,10.36-10.22,3.56,0,5.7.96,7.76,2.71l-2.74,3.3c-1.52-1.27-2.88-2-5.17-2-3.16,0-5.68,2.8-5.68,6.15v.06c0,3.61,2.48,6.27,5.99,6.27,1.58,0,2.99-.4,4.09-1.19v-2.82h-4.38v-3.75h8.58v8.58c-2.03,1.72-4.83,3.14-8.44,3.14-6.16,0-10.39-4.32-10.39-10.16Z"/>
    <path class="cls-4" d="m403.66,75.06h4.35v19.76h-4.35v-19.76Z"/>
  </g>
  <line class="cls-2" x1="426.59" y1="28.66" x2="426.59" y2="103.45"/>
  <line class="cls-2" x1="518.17" y1="28.66" x2="518.17" y2="103.45"/>
  <line class="cls-2" x1="456.75" y1="28.66" x2="456.75" y2="103.45"/>
  <line class="cls-2" x1="471.83" y1="56.2" x2="471.83" y2="103.45"/>
  <line class="cls-2" x1="441.67" y1="28.66" x2="441.67" y2="83.74"/>
  <g>
    <path id="path12211" class="cls-1" d="m129.83,7.62c3.35,6.78.57,15-6.21,18.35-6.78,3.35-14.99.56-18.34-6.22-3.35-6.78-.57-14.99,6.21-18.34,6.78-3.35,14.99-.58,18.34,6.2h0Zm-3.63,1.79c-2.36-4.78-8.15-6.74-12.92-4.38-4.78,2.36-6.74,8.15-4.37,12.92,2.36,4.78,8.15,6.74,12.92,4.37,4.78-2.36,6.74-8.15,4.38-12.92h0Z"/>
    <path id="path12215" class="cls-1" d="m114.66,7.84c-3.24,1.59-4.58,5.51-2.98,8.75,1.59,3.24,5.51,4.58,8.75,2.98,0,0,.02,0,.03-.01,3.24-1.59,4.58-5.51,2.98-8.75-1.59-3.24-5.51-4.58-8.75-2.98,0,0-.02,0-.03.01Z"/>
  </g>
  <g>
    <path id="path12211-2" data-name="path12211" class="cls-1" d="m96.49,39.67c3.35,6.78.57,15-6.21,18.35-6.78,3.35-14.99.56-18.34-6.22-3.35-6.78-.57-14.99,6.21-18.34,6.78-3.35,14.99-.58,18.34,6.2h0Zm-3.63,1.79c-2.36-4.78-8.15-6.74-12.92-4.38-4.78,2.36-6.74,8.15-4.37,12.92,2.36,4.78,8.15,6.74,12.92,4.37,4.78-2.36,6.74-8.15,4.38-12.92h0Z"/>
    <path id="path12215-2" data-name="path12215" class="cls-1" d="m81.33,39.88c-3.24,1.59-4.58,5.51-2.98,8.75,1.59,3.24,5.51,4.58,8.75,2.98,0,0,.02,0,.03-.01,3.24-1.59,4.58-5.51,2.98-8.75-1.59-3.24-5.51-4.58-8.75-2.98,0,0-.02,0-.03.01Z"/>
  </g>
  <g>
    <path id="path12211-3" data-name="path12211" class="cls-1" d="m507.28,38.66c3.35,6.78.57,15-6.21,18.35-6.78,3.35-14.99.56-18.34-6.22-3.35-6.78-.57-14.99,6.21-18.34,6.78-3.35,14.99-.58,18.34,6.2h0Zm-3.63,1.79c-2.36-4.78-8.15-6.74-12.92-4.38-4.78,2.36-6.74,8.15-4.37,12.92,2.36,4.78,8.15,6.74,12.92,4.37,4.78-2.36,6.74-8.15,4.38-12.92h0Z"/>
    <path id="path12215-3" data-name="path12215" class="cls-1" d="m492.11,38.87c-3.24,1.59-4.58,5.51-2.98,8.75,1.59,3.24,5.51,4.58,8.75,2.98,0,0,.02,0,.03-.01,3.24-1.59,4.58-5.51,2.98-8.75-1.59-3.24-5.51-4.58-8.75-2.98,0,0-.02,0-.03.01Z"/>
  </g>
</svg>